<svg width="100" height="100" viewBox="0 0 100 100" fill="none" xmlns="http://www.w3.org/2000/svg"><path fill-rule="evenodd" clip-rule="evenodd" d="M50 100C77.6142 100 100 77.6142 100 50C100 22.3858 77.6142 0 50 0C22.3858 0 0 22.3858 0 50C0 77.6142 22.3858 100 50 100Z" fill="#161823" fill-opacity="0.15"/><mask id="mask0" mask-type="alpha" maskUnits="userSpaceOnUse" x="0" y="0" width="100" height="100"><path fill-rule="evenodd" clip-rule="evenodd" d="M50 100C77.6142 100 100 77.6142 100 50C100 22.3858 77.6142 0 50 0C22.3858 0 0 22.3858 0 50C0 77.6142 22.3858 100 50 100Z" fill="white"/></mask><g mask="url(#mask0)"><path fill-rule="evenodd" clip-rule="evenodd" d="M71 47C71 58.598 61.598 68 50 68C38.402 68 29 58.598 29 47C29 35.402 38.402 26 50 26C61.598 26 71 35.402 71 47ZM79.5255 103V102.956C79.8565 102.956 80.193 102.908 80.5262 102.808C82.3633 102.256 83.4045 100.32 82.8518 98.485C78.4166 83.7558 65.1865 73.5 50.0008 73.5C34.8129 73.5 21.5813 83.7589 17.148 98.4912C16.5957 100.327 17.6372 102.262 19.4744 102.814C19.8074 102.914 20.1437 102.962 20.4745 102.962V103H79.5255Z" fill="white" fill-opacity="0.7"/></g></svg>