<svg width="16" height="17" viewBox="0 0 16 17" fill="none" xmlns="http://www.w3.org/2000/svg">
<g clip-path="url(#clip0)">
<path fill-rule="evenodd" clip-rule="evenodd" d="M3.3528 5.49078C3.09245 5.23043 2.67034 5.23043 2.40999 5.49078L1.93858 5.96219C1.67823 6.22254 1.67823 6.64465 1.93858 6.905L7.12242 12.0888C7.12295 12.0894 7.12349 12.0899 7.12403 12.0904L7.59543 12.5618C7.59543 12.5618 7.59544 12.5618 7.59544 12.5619C7.7471 12.7135 7.95365 12.7768 8.15114 12.7518C8.29268 12.7339 8.42956 12.6705 8.53825 12.5619L9.00965 12.0904C9.01046 12.0896 9.01126 12.0888 9.01206 12.088L14.1951 6.90499C14.4554 6.64464 14.4554 6.22253 14.1951 5.96218L13.7237 5.49078C13.4633 5.23043 13.0412 5.23043 12.7809 5.49078L8.06684 10.2048L3.3528 5.49078Z" fill="#FE2C55"/>
</g>
<defs>
<clipPath id="clip0">
<path d="M0 0.5H16V16.5H0V0.5Z" fill="white"/>
</clipPath>
</defs>
</svg>
