<svg width="20" height="20" viewBox="0 0 20 20" fill="none" xmlns="http://www.w3.org/2000/svg">
<path fill-rule="evenodd" clip-rule="evenodd" d="M10 20C15.5228 20 20 15.5228 20 10C20 4.47715 15.5228 0 10 0C4.47715 0 0 4.47715 0 10C0 15.5228 4.47715 20 10 20Z" fill="#20D5EC"/>
<path fill-rule="evenodd" clip-rule="evenodd" d="M8.11859 12.2863C7.63234 12.7725 7.63234 13.5675 8.11859 14.0525C8.60422 14.5387 9.39859 14.5387 9.88484 14.0525L15.4005 8.53688C15.8861 8.05125 15.8861 7.25688 15.4005 6.77062C15.1573 6.52812 14.8373 6.40625 14.5173 6.40625C14.1967 6.40625 13.8767 6.52812 13.6336 6.77062L8.11859 12.2863Z" fill="white"/>
<path fill-rule="evenodd" clip-rule="evenodd" d="M11.651 12.286C11.1654 12.7716 10.3704 12.7716 9.88477 12.286L9.00164 11.4029L6.36727 8.76852C5.88164 8.28289 5.08602 8.28289 4.60102 8.76852C4.11477 9.25414 4.11477 10.0491 4.60102 10.5348L8.11852 14.0523C8.60414 14.5385 9.39852 14.5385 9.88477 14.0523L11.651 12.286Z" fill="white"/>
</svg>
